<svg width="18" height="18" viewBox="0 0 24 24" fill="none" xmlns="http://www.w3.org/2000/svg">
  <path d="M3 21H21" stroke="#1677ff" stroke-width="1.8" stroke-linecap="round" stroke-linejoin="round"/>
  <path d="M19 21V17" stroke="#1677ff" stroke-width="1.8" stroke-linecap="round" stroke-linejoin="round"/>
  <path d="M19 17C20.1046 17 21 16.1046 21 15V13C21 11.8954 20.1046 11 19 11C17.8954 11 17 11.8954 17 13V15C17 16.1046 17.8954 17 19 17Z" stroke="#1677ff" stroke-width="1.8" stroke-linecap="round" stroke-linejoin="round"/>
  <path d="M14 21V7C14 5.34315 12.6569 4 11 4H7C5.34315 4 4 5.34315 4 7V21" stroke="#1677ff" stroke-width="1.8" stroke-linecap="round" stroke-linejoin="round"/>
  <path d="M9 17V21" stroke="#1677ff" stroke-width="1.8" stroke-linecap="round" stroke-linejoin="round"/>
  <path d="M8 13H10" stroke="#1677ff" stroke-width="1.8" stroke-linecap="round" stroke-linejoin="round"/>
  <path d="M8 9H10" stroke="#1677ff" stroke-width="1.8" stroke-linecap="round" stroke-linejoin="round"/>
</svg>
