<svg width="18" height="18" viewBox="0 0 24 24" fill="none" xmlns="http://www.w3.org/2000/svg">
  <path d="M3 17C3 15.8954 3.89543 15 5 15H7C8.10457 15 9 15.8954 9 17V19C9 20.1046 8.10457 21 7 21H5C3.89543 21 3 20.1046 3 19V17Z" stroke="#1677ff" stroke-width="1.8" stroke-linecap="round" stroke-linejoin="round"/>
  <path d="M15 17C15 15.8954 15.8954 15 17 15H19C20.1046 15 21 15.8954 21 17V19C21 20.1046 20.1046 21 19 21H17C15.8954 21 15 20.1046 15 19V17Z" stroke="#1677ff" stroke-width="1.8" stroke-linecap="round" stroke-linejoin="round"/>
  <path d="M9 5C9 3.89543 9.89543 3 11 3H13C14.1046 3 15 3.89543 15 5V7C15 8.10457 14.1046 9 13 9H11C9.89543 9 9 8.10457 9 7V5Z" stroke="#1677ff" stroke-width="1.8" stroke-linecap="round" stroke-linejoin="round"/>
  <path d="M6 15V14C6 12.8954 6.89543 12 8 12H16C17.1046 12 18 12.8954 18 14V15" stroke="#1677ff" stroke-width="1.8" stroke-linecap="round" stroke-linejoin="round"/>
  <path d="M12 9V12" stroke="#1677ff" stroke-width="1.8" stroke-linecap="round" stroke-linejoin="round"/>
</svg>
